<svg xmlns="http://www.w3.org/2000/svg" xmlns:xlink="http://www.w3.org/1999/xlink" width="1036" height="999" viewBox="0 0 1036 999"><defs><path id="8vxea" d="M1128.03 2619.03c-16.27-16.27-16.27-48.8 0-65.06l342.94-342.94c16.27-16.27 48.8-16.27 65.06 0l342.94 342.94c16.27 16.27 16.27 48.8 0 65.06l-342.94 342.94c-16.27 16.27-48.8 16.27-65.06 0z"/><path id="8vxeb" d="M1697.3 2343.3c-10.96-10.96-10.96-32.88 0-43.84l200.82-200.82c10.96-10.96 32.88-10.96 43.84 0l200.81 200.82c10.96 10.96 10.96 32.88 0 43.84l-200.81 200.82c-10.96 10.96-32.88 10.96-43.84 0z"/><path id="8vxec" d="M1697.3 2879.3c-10.96-10.96-10.96-32.88 0-43.84l200.82-200.82c10.96-10.96 32.88-10.96 43.84 0l200.81 200.82c10.96 10.96 10.96 32.88 0 43.84l-200.81 200.82c-10.96 10.96-32.88 10.96-43.84 0z"/></defs><g><g transform="translate(-1115 -2090)"><use fill="#5dc0cc" xlink:href="#8vxea"/></g><g transform="translate(-1115 -2090)"><use fill="#5dc0cc" xlink:href="#8vxeb"/></g><g transform="translate(-1115 -2090)"><use fill="#5dc0cc" xlink:href="#8vxec"/></g></g></svg>