<svg xmlns="http://www.w3.org/2000/svg" xmlns:xlink="http://www.w3.org/1999/xlink" width="138.5" height="27" viewBox="0 0 277 54"><defs><path id="c376a" d="M121.39 54.01c0 2.51.6 4.42 1.76 5.72a5.7 5.7 0 0 0 4.38 2c1.72 0 3.2-.65 4.37-2 1.16-1.34 1.77-3.25 1.77-5.76 0-2.47-.6-4.38-1.77-5.68a5.7 5.7 0 0 0-4.37-2c-1.72 0-3.21.65-4.38 2-1.16 1.35-1.76 3.26-1.76 5.72zm-6.84-.32c0-2.2.55-4.33 1.62-6.42a11.6 11.6 0 0 1 4.61-4.75 14 14 0 0 1 6.7-1.63c3.82 0 6.93 1.26 9.35 3.72 2.42 2.47 3.63 5.59 3.63 9.36 0 3.81-1.2 6.97-3.67 9.44a12.42 12.42 0 0 1-9.26 3.77c-2.33 0-4.52-.51-6.6-1.58a10.82 10.82 0 0 1-4.8-4.56c-1.03-2-1.58-4.47-1.58-7.35z"/><path id="c376b" d="M162.14 54.1c0 2.61-.56 4.52-1.63 5.82a4.89 4.89 0 0 1-3.9 1.95 5.1 5.1 0 0 1-4.52-2.6c-.74-1.21-1.11-3.16-1.11-5.82 0-2.5.5-4.37 1.58-5.63a4.95 4.95 0 0 1 3.95-1.86c1.63 0 2.98.65 4 1.91 1.12 1.3 1.63 3.35 1.63 6.23zm0-9.72c-2.05-2.33-4.46-3.49-7.3-3.49a9.83 9.83 0 0 0-7.59 3.3c-2 2.24-3.02 5.45-3.02 9.73 0 4.19 1.02 7.4 3.07 9.72a9.54 9.54 0 0 0 7.44 3.5 9.87 9.87 0 0 0 7.86-4.28v3.67h6.2V32.6l-6.66 3.86z"/><path id="c376c" d="M190.29 51.87c-.05-1.9-.56-3.4-1.49-4.37a4.45 4.45 0 0 0-3.44-1.5c-1.44 0-2.65.52-3.58 1.6a6.37 6.37 0 0 0-1.4 4.32h9.91zm-.37 6.75l6.6 1.11a10.64 10.64 0 0 1-4.04 5.54 12 12 0 0 1-6.89 1.9c-4.37 0-7.58-1.43-9.72-4.27-1.68-2.28-2.47-5.17-2.47-8.66 0-4.18 1.07-7.44 3.26-9.77a10.74 10.74 0 0 1 8.28-3.53c3.72 0 6.7 1.25 8.84 3.72 2.14 2.47 3.21 6.23 3.12 11.35h-16.66c.05 1.96.6 3.5 1.63 4.6a4.97 4.97 0 0 0 3.81 1.64c1.03 0 1.91-.28 2.6-.84a6.01 6.01 0 0 0 1.64-2.8z"/><path id="c376d" d="M199.97 59.4l6.7-1.01c.28 1.3.83 2.27 1.72 2.93a6 6 0 0 0 3.63 1.02c1.72 0 3.02-.33 3.86-.93.6-.42.88-1.02.88-1.77 0-.51-.14-.93-.46-1.25-.33-.33-1.07-.61-2.24-.89-5.35-1.16-8.74-2.28-10.18-3.26a6.46 6.46 0 0 1-2.98-5.67c0-2.19.84-4 2.56-5.5 1.72-1.48 4.37-2.22 8-2.22 3.44 0 6 .55 7.68 1.67a8.47 8.47 0 0 1 3.44 4.98l-6.28 1.16a3.9 3.9 0 0 0-1.54-2.23 5.63 5.63 0 0 0-3.2-.8c-1.78 0-3.03.24-3.78.75a1.52 1.52 0 0 0-.09 2.56c.6.47 2.65 1.07 6.23 1.86 3.54.8 6 1.82 7.45 2.98 1.4 1.16 2.1 2.84 2.1 4.93 0 2.33-.98 4.28-2.9 5.96-1.9 1.67-4.78 2.46-8.55 2.46-3.45 0-6.14-.7-8.14-2.1a9.24 9.24 0 0 1-3.91-5.62z"/><path id="c376e" d="M240.82 41.45v5.3h-4.56V56.9c0 2.04.04 3.25.14 3.58.09.32.28.6.6.84.33.23.7.32 1.12.32.6 0 1.49-.23 2.7-.65l.55 5.16c-1.53.66-3.3.98-5.25.98a8.13 8.13 0 0 1-3.26-.6 4.87 4.87 0 0 1-2.14-1.58 6.11 6.11 0 0 1-.93-2.61c-.14-.8-.23-2.33-.23-4.7V46.75h-3.07v-5.3h3.07v-4.98l6.65-3.86v8.89h4.6z"/><path id="c376f" d="M251.8 66.62h-6.66V41.5h6.2v3.58c1.06-1.68 2-2.8 2.83-3.35.84-.56 1.81-.8 2.88-.8 1.54 0 2.98.43 4.38 1.26l-2.05 5.82a5.58 5.58 0 0 0-3.12-1.07c-.93 0-1.72.28-2.37.8-.65.5-1.16 1.43-1.54 2.78-.37 1.35-.55 4.14-.55 8.42z"/><path id="c376g" d="M278.18 54.52c-.84.28-2.19.6-4.05 1.03-1.86.37-3.07.79-3.63 1.16-.88.6-1.3 1.4-1.3 2.33 0 .93.32 1.72 1.02 2.42s1.58 1.02 2.65 1.02c1.21 0 2.33-.37 3.45-1.16.79-.6 1.34-1.35 1.58-2.19.18-.56.28-1.63.28-3.26zm-8.94-5.4l-6.04-1.06c.7-2.42 1.86-4.24 3.48-5.4 1.68-1.16 4.15-1.77 7.4-1.77 2.98 0 5.17.37 6.6 1.07a6.56 6.56 0 0 1 3.08 2.7c.6 1.07.88 3.07.88 5.96l-.09 7.77c0 2.18.1 3.86.33 4.88.23 1.07.6 2.19 1.2 3.4h-6.55c-.19-.47-.38-1.12-.66-1.96-.09-.37-.18-.65-.23-.79a11.18 11.18 0 0 1-3.63 2.47c-1.3.56-2.65.83-4.14.83-2.6 0-4.6-.7-6.14-2.09a6.96 6.96 0 0 1-2.23-5.3 6.87 6.87 0 0 1 3.86-6.37c1.2-.61 2.98-1.12 5.3-1.54 3.12-.6 5.26-1.12 6.47-1.63v-.65c0-1.26-.33-2.19-.93-2.75-.65-.55-1.82-.83-3.58-.83-1.17 0-2.1.23-2.8.7-.6.37-1.16 1.2-1.58 2.37z"/><path id="c376h" d="M298.18 66.62L288.04 41.5h6.98l4.74 12.84 1.4 4.28c.37-1.07.6-1.82.7-2.14.23-.7.46-1.44.7-2.14l4.79-12.84h6.8l-10.01 25.12z"/><path id="c376i" d="M333.17 51.87c-.05-1.9-.56-3.4-1.49-4.37a4.45 4.45 0 0 0-3.44-1.5c-1.44 0-2.65.52-3.58 1.6a6.37 6.37 0 0 0-1.4 4.32h9.91zm-.37 6.75l6.6 1.11a10.64 10.64 0 0 1-4.04 5.54 12 12 0 0 1-6.89 1.9c-4.37 0-7.63-1.43-9.72-4.27-1.68-2.28-2.47-5.17-2.47-8.66 0-4.18 1.07-7.44 3.26-9.77a10.74 10.74 0 0 1 8.28-3.53c3.72 0 6.7 1.25 8.84 3.72 2.14 2.47 3.2 6.23 3.12 11.35h-16.66c.05 1.96.6 3.5 1.63 4.6a4.97 4.97 0 0 0 3.81 1.64c1.03 0 1.91-.28 2.6-.84a6.01 6.01 0 0 0 1.64-2.8z"/><path id="c376j" d="M75 66.71V31.68h10.6l6.38 23.91 6.28-23.91h10.61v35.03h-6.6V39.12l-6.98 27.6h-6.8l-6.93-27.6v27.6z"/><path id="c376k" d="M345.17 66.62h6.66V32.61l-6.66 3.86z"/><path id="c376l" d="M324.56 14.23l-20.42 15.73-10.89-2.42-5.96 9.72 12.47-6.37 4.2.93z"/><path id="c376m" d="M322.33 14.47l-30.62 12.1-5.86 9.58-3.67-9.4-10.24-1.96z"/></defs><g><g transform="translate(-75 -14)"><use fill="#018ecd" xlink:href="#c376a"/></g><g transform="translate(-75 -14)"><use fill="#018ecd" xlink:href="#c376b"/></g><g transform="translate(-75 -14)"><use fill="#018ecd" xlink:href="#c376c"/></g><g transform="translate(-75 -14)"><use fill="#018ecd" xlink:href="#c376d"/></g><g transform="translate(-75 -14)"><use fill="#018ecd" xlink:href="#c376e"/></g><g transform="translate(-75 -14)"><use fill="#018ecd" xlink:href="#c376f"/></g><g transform="translate(-75 -14)"><use fill="#018ecd" xlink:href="#c376g"/></g><g transform="translate(-75 -14)"><use fill="#018ecd" xlink:href="#c376h"/></g><g transform="translate(-75 -14)"><use fill="#018ecd" xlink:href="#c376i"/></g><g transform="translate(-75 -14)"><use fill="#018ecd" xlink:href="#c376j"/></g><g transform="translate(-75 -14)"><use fill="#018ecd" xlink:href="#c376k"/></g><g transform="translate(-75 -14)"><use fill="#018ecd" xlink:href="#c376l"/></g><g transform="translate(-75 -14)"><use fill="#018ecd" xlink:href="#c376m"/></g></g></svg>